<svg width="25" height="25" viewBox="0 0 25 25" fill="none" xmlns="http://www.w3.org/2000/svg">
<path d="M13.0039 0.683476C6.37607 0.677898 1.00021 6.04635 0.994633 12.6742C0.989055 19.302 6.35751 24.6779 12.9854 24.6835C19.6123 24.6779 24.9844 19.3104 24.9946 12.6835C24.9946 6.05934 19.6281 0.689054 13.0039 0.683476ZM12.9854 22.6866C7.4609 22.6866 2.98227 18.2079 2.98227 12.6835C2.98227 7.15902 7.4609 2.6804 12.9854 2.6804C18.5079 2.68598 22.9829 7.1609 22.9884 12.6835C22.9884 18.2079 18.5098 22.6866 12.9854 22.6866Z" fill="url(#paint0_linear)"/>
<path d="M16.2261 12.0986C17.0286 11.6463 17.4624 10.7407 17.3129 9.83233C17.1271 8.42988 15.4553 7.90043 14.1364 7.78901V5.68066H12.8361V7.77044H11.963V5.68066H10.6627V7.77044H8.04346V9.11721H9.01869C9.45524 9.11721 9.66885 9.24724 9.66885 9.60016V15.3866C9.66885 15.8695 9.42735 16.0181 9.16729 16.0181H8.17349V17.3928H10.6998V19.529H12.0094V17.3928H12.8825V19.529H14.1549V17.3928H14.4336C17.1085 17.3928 18.0001 16.0832 18.0001 14.2999C17.9788 13.2484 17.2497 12.3438 16.2261 12.0986ZM11.963 9.20079H12.8917C13.5419 9.20079 14.8236 9.31226 14.8236 10.3711C14.8682 11.0621 14.3676 11.6677 13.6812 11.755H11.963V9.20079ZM13.4026 15.8881V15.8788H11.963V13.0924H13.6348C14.0249 13.0924 15.4924 13.2224 15.4924 14.2627C15.4924 15.3029 14.7958 15.8881 13.4026 15.8881Z" fill="url(#paint1_linear)"/>
<defs>
<linearGradient id="paint0_linear" x1="14.1946" y1="-3.09431" x2="15.5487" y2="39.4212" gradientUnits="userSpaceOnUse">
<stop stop-color="#FD749B"/>
<stop offset="1" stop-color="#281AC8"/>
</linearGradient>
<linearGradient id="paint1_linear" x1="13.5196" y1="3.50084" x2="14.6053" y2="28.0096" gradientUnits="userSpaceOnUse">
<stop stop-color="#FD749B"/>
<stop offset="1" stop-color="#281AC8"/>
</linearGradient>
</defs>
</svg>
