<svg width="12" height="12" viewBox="0 0 12 12" fill="none" xmlns="http://www.w3.org/2000/svg">
<path d="M5.74099 10.9408L3.54099 11.8408C3.04099 12.0408 2.44099 11.8408 2.24099 11.3408C2.14099 11.1408 2.14099 11.0408 2.14099 10.8408L2.34099 8.44082C2.34099 8.14082 2.24099 7.94082 2.14099 7.74082L0.540992 5.94082C0.240992 5.54082 0.240992 4.84082 0.640992 4.54082C0.840992 4.44082 0.940992 4.34082 1.14099 4.34082L3.44099 3.84082C3.74099 3.74082 3.94099 3.64082 4.04099 3.34082L5.24099 1.34082C5.54099 0.84082 6.14099 0.74082 6.64099 1.04082C6.74099 1.14082 6.94099 1.24082 6.94099 1.34082L8.14099 3.34082C8.24099 3.54082 8.54099 3.74082 8.74099 3.84082L11.141 4.34082C11.641 4.44082 12.041 5.04082 11.841 5.54082C11.841 5.74082 11.741 5.84082 11.641 5.94082L10.141 7.74082C9.94099 7.94082 9.84099 8.24082 9.94099 8.44082L10.141 10.8408C10.141 11.4408 9.74099 11.8408 9.24099 11.9408C9.04099 11.9408 8.94099 11.9408 8.74099 11.8408L6.54099 10.9408C6.24099 10.8408 6.04099 10.8408 5.74099 10.9408Z" fill="url(#paint0_linear)"/>
<defs>
<linearGradient id="paint0_linear" x1="6.68869" y1="-0.870233" x2="7.28635" y2="18.7395" gradientUnits="userSpaceOnUse">
<stop stop-color="#FD749B"/>
<stop offset="1" stop-color="#281AC8"/>
</linearGradient>
</defs>
</svg>
